HIERARCHY
ROOT pelvis
{
	OFFSET 0.000000 0.819327 -0.000000
	CHANNELS 6 Xposition Yposition Zposition Xrotation Yrotation Zrotation
	JOINT spine
	{
		OFFSET 0.000000 0.000000 0.000000
		CHANNELS 6 Xposition Yposition Zposition Xrotation Yrotation Zrotation
		JOINT spine.001
		{
			OFFSET 0.000000 0.274295 0.014375
			CHANNELS 3 Xrotation Yrotation Zrotation
			JOINT neck
			{
				OFFSET 0.000000 0.272624 -0.033474
				CHANNELS 6 Xposition Yposition Zposition Xrotation Yrotation Zrotation
				JOINT face
				{
					OFFSET 0.000000 0.229254 -0.004002
					CHANNELS 6 Xposition Yposition Zposition Xrotation Yrotation Zrotation
					End Site
					{
						OFFSET 0.000000 -0.008325 0.034789
					}
				}
			}
			JOINT shoulder.L
			{
				OFFSET 0.000000 0.272624 -0.033474
				CHANNELS 6 Xposition Yposition Zposition Yrotation Xrotation Zrotation
				JOINT upper_arm.L
				{
					OFFSET 0.176669 0.000000 0.000000
					CHANNELS 6 Xposition Yposition Zposition Xrotation Yrotation Zrotation
					JOINT forearm.L
					{
						OFFSET 0.296726 0.001035 -0.000125
						CHANNELS 6 Xposition Yposition Zposition Xrotation Yrotation Zrotation
						End Site
						{
							OFFSET 0.253303 -0.001426 0.004307
						}
					}
				}
			}
			JOINT shoulder.R
			{
				OFFSET 0.000000 0.272624 -0.033474
				CHANNELS 6 Xposition Yposition Zposition Yrotation Xrotation Zrotation
				JOINT upper_arm.R
				{
					OFFSET -0.176669 0.000000 0.000000
					CHANNELS 6 Xposition Yposition Zposition Xrotation Yrotation Zrotation
					JOINT forearm.R
					{
						OFFSET -0.290211 0.001035 -0.000125
						CHANNELS 6 Xposition Yposition Zposition Xrotation Yrotation Zrotation
						End Site
						{
							OFFSET -0.249563 -0.001426 0.004242
						}
					}
				}
			}
		}
	}
	JOINT pelvis.L
	{
		OFFSET 0.000000 0.000000 0.000000
		CHANNELS 6 Xposition Yposition Zposition Yrotation Xrotation Zrotation
		End Site
		{
			OFFSET 0.111019 0.000000 0.000000
		}
	}
	JOINT pelvis.R
	{
		OFFSET 0.000000 0.000000 0.000000
		CHANNELS 6 Xposition Yposition Zposition Yrotation Xrotation Zrotation
		End Site
		{
			OFFSET -0.111019 0.000000 0.000000
		}
	}
	JOINT thigh.L
	{
		OFFSET 0.111019 0.000000 0.000000
		CHANNELS 6 Xposition Yposition Zposition Xrotation Yrotation Zrotation
		JOINT shin.L
		{
			OFFSET 0.020713 -0.395230 0.000000
			CHANNELS 6 Xposition Yposition Zposition Xrotation Yrotation Zrotation
			JOINT foot.L
			{
				OFFSET 0.017623 -0.336258 0.000000
				CHANNELS 6 Xposition Yposition Zposition Xrotation Yrotation Zrotation
				End Site
				{
					OFFSET 0.017811 -0.076256 0.181598
				}
			}
		}
	}
	JOINT thigh.R
	{
		OFFSET -0.111019 0.000000 0.000000
		CHANNELS 6 Xposition Yposition Zposition Xrotation Yrotation Zrotation
		JOINT shin.R
		{
			OFFSET -0.020939 -0.399547 0.000000
			CHANNELS 6 Xposition Yposition Zposition Xrotation Yrotation Zrotation
			JOINT foot.R
			{
				OFFSET -0.018228 -0.347803 0.000000
				CHANNELS 6 Xposition Yposition Zposition Xrotation Yrotation Zrotation
				End Site
				{
					OFFSET -0.018558 -0.079457 0.189220
				}
			}
		}
	}
}
MOTION
Frames: 4
Frame Time: 0.041667
-0.077924 -0.007176 0.085673 -0.000000 -0.393961 -0.000000 0.000000 -0.000000 0.000000 -6.452095 0.269840 -2.473118 10.005301 2.206462 -0.271024 0.000000 0.272624 -0.033474 14.614412 17.502165 -0.320057 -0.000000 0.229254 -0.004002 4.073410 -0.000015 0.000002 0.000000 0.272624 -0.033474 0.232748 -0.003853 1.896101 0.176669 -0.000000 0.000000 3.806790 4.882908 -76.823372 0.296726 0.001035 -0.000125 -76.143932 -55.311876 -113.046598 0.000000 0.272624 -0.033474 0.226336 -0.003639 1.843947 -0.176669 -0.000000 0.000000 0.980158 -1.312454 76.040428 -0.290211 0.001035 -0.000125 -65.166657 49.112301 109.835425 0.000000 -0.000000 0.000000 -0.000015 -0.000001 -2.320539 0.000000 0.000000 0.000000 0.000000 -0.000000 -2.320540 0.110928 -0.004495 -0.000000 6.815349 0.618977 4.366682 0.020713 -0.395230 0.000000 5.524943 0.476128 3.843245 0.017623 -0.336258 0.000000 -13.399819 5.936711 4.719685 -0.110928 0.004495 -0.000000 10.447946 0.162075 7.772445 -0.020939 -0.399547 0.000000 -4.039225 0.213107 -0.037708 -0.018228 -0.347803 0.000000 -9.503875 -3.012596 -2.531512 
-0.076749 -0.008613 0.085982 -0.000000 -0.082909 -0.000000 -0.000000 -0.000000 0.000000 -6.662724 0.258892 -2.333038 10.009400 2.963179 -0.364157 0.000000 0.272624 -0.033474 15.237141 14.917601 -0.266440 -0.000000 0.229254 -0.004002 3.646711 0.000007 -0.000009 0.000000 0.272624 -0.033474 0.234200 -0.003899 1.908234 0.176669 -0.000000 0.000000 4.212260 5.378250 -77.025491 0.296726 0.001035 -0.000125 -75.606041 -55.245579 -112.614882 0.000000 0.272624 -0.033474 0.227802 -0.003692 1.856080 -0.176669 -0.000000 0.000000 1.883322 -2.501319 75.466398 -0.290211 0.001035 -0.000125 -64.980057 49.354903 109.327853 -0.000000 0.000000 -0.000000 0.000008 0.000000 -2.201770 -0.000000 0.000000 -0.000000 0.000000 -0.000000 -2.201770 0.110937 -0.004265 -0.000000 6.468117 0.580502 4.246075 0.020713 -0.395230 0.000000 6.125269 0.531987 3.918071 0.017623 -0.336258 0.000000 -12.789322 5.954582 4.621741 -0.110937 0.004265 -0.000000 10.431110 0.174476 7.911172 -0.020939 -0.399547 0.000000 -3.804760 0.203099 -0.108876 -0.018228 -0.347803 0.000000 -11.522398 -3.017166 -2.817169 
-0.075946 -0.009693 0.086138 -0.000000 0.160458 -0.000000 -0.000000 -0.000000 0.000000 -6.813459 0.252157 -2.245402 10.013181 3.489662 -0.428977 -0.000000 0.272624 -0.033474 15.703358 13.018884 -0.169517 -0.000000 0.229254 -0.004002 3.278447 0.000004 -0.000007 -0.000000 0.272624 -0.033474 0.239623 -0.004082 1.952051 0.176669 -0.000000 0.000000 4.370753 5.564303 -77.170694 0.296726 0.001035 -0.000125 -75.104152 -55.178868 -112.215630 -0.000000 0.272624 -0.033474 0.233211 -0.003867 1.899858 -0.176669 0.000000 0.000000 2.550935 -3.389540 75.145393 -0.290211 0.001035 -0.000125 -65.370040 49.561294 109.464676 -0.000000 0.000000 0.000000 0.000038 0.000000 -2.125272 -0.000000 0.000000 0.000000 0.000000 -0.000000 -2.125272 0.110942 -0.004117 -0.000000 6.233029 0.554054 4.149354 0.020713 -0.395230 0.000000 6.497354 0.568482 3.989930 0.017623 -0.336258 0.000000 -12.265958 5.990318 4.549221 -0.110942 0.004117 -0.000000 10.413061 0.184968 8.029577 -0.020939 -0.399547 0.000000 -3.655785 0.197749 -0.190430 -0.018228 -0.347803 0.000000 -13.018010 -3.042592 -3.044700 
-0.075565 -0.010341 0.086139 -0.000000 0.326048 -0.000000 0.000000 -0.000000 -0.000000 -6.901336 0.250348 -2.213979 10.014936 3.722246 -0.457677 0.000000 0.272624 -0.033474 16.006345 11.926935 -0.057473 0.000000 0.229254 -0.004002 2.981178 -0.000009 0.000003 0.000000 0.272624 -0.033474 0.246674 -0.004327 2.008683 0.176669 -0.000000 0.000000 4.258694 5.414874 -77.254186 0.296726 0.001035 -0.000125 -74.773209 -55.227004 -111.842961 -0.000000 0.272624 -0.033474 0.240220 -0.004103 1.956534 -0.176669 0.000000 0.000000 2.882685 -3.828970 75.068710 -0.290211 0.001035 -0.000125 -66.168223 49.742581 110.051901 0.000000 0.000000 -0.000000 0.000004 0.000000 -2.093135 0.000000 0.000000 -0.000000 0.000000 -0.000000 -2.093166 0.110945 -0.004055 -0.000000 6.108057 0.539778 4.090856 0.020713 -0.395230 0.000000 6.641238 0.584279 4.044391 0.017623 -0.336258 0.000000 -11.890033 6.027183 4.503248 -0.110945 0.004055 -0.000000 10.386770 0.192582 8.118497 -0.020939 -0.399547 0.000000 -3.583962 0.196543 -0.275830 -0.018228 -0.347803 0.000000 -13.934095 -3.057128 -3.185443 
